<svg height="480pt" viewBox="0 -4 480 480" width="480pt" xmlns="http://www.w3.org/2000/svg"><path d="m24 64h432v400h-432zm0 0" fill="#e3584b"/><path d="m8 32h464v32h-464zm0 0" fill="#e3584b"/><path d="m24 64h432v16h-432zm0 0" fill="#cf4c45"/><path d="m56 272h88v192h-88zm0 0" fill="#4398d1"/><path d="m176 272h248v160h-248zm0 0" fill="#4398d1"/><path d="m208 384h40v48h-40zm0 0" fill="#286899"/><path d="m280 384h40v48h-40zm0 0" fill="#286899"/><path d="m352 384h40v48h-40zm0 0" fill="#286899"/><path d="m208 304h40v48h-40zm0 0" fill="#286899"/><path d="m280 304h40v48h-40zm0 0" fill="#286899"/><path d="m352 304h40v48h-40zm0 0" fill="#286899"/><path d="m176 344h248v16h-248zm0 0" fill="#286899"/><path d="m0 456h480v16h-480zm0 0" fill="#a3603e"/><path d="m472 200h-464l16-56h432zm0 0" fill="#fdb62f"/><path d="m8 200h464v40h-464zm0 0" fill="#f5a714"/><path d="m80 0h320v112h-320zm0 0" fill="#a3603e"/><path d="m248 112h152v-112h-40zm0 0" fill="#8f4f2f"/><g fill="#fdb62f"><path d="m152 96c-1.242188 0-2.464844-.285156-3.574219-.839844l-14.3125-7.160156h-22.113281c-4.417969 0-8-3.582031-8-8v-48c0-4.417969 3.582031-8 8-8h24c1.242188 0 2.464844.285156 3.574219.839844l16 8c2.714843 1.355468 4.425781 4.128906 4.425781 7.160156v48c0 4.417969-3.582031 8-8 8zm-32-24h16c1.242188 0 2.464844.285156 3.574219.839844l4.425781 2.214844v-30.109376l-9.886719-4.945312h-14.113281zm0 0"/><path d="m152 96c-4.417969 0-8-3.582031-8-8v-48c0-3.03125 1.710938-5.804688 4.425781-7.160156l16-8c1.109375-.554688 2.332031-.839844 3.574219-.839844h24c4.417969 0 8 3.582031 8 8v48c0 4.417969-3.582031 8-8 8h-22.113281l-14.3125 7.160156c-1.109375.554688-2.332031.839844-3.574219.839844zm8-51.054688v30.109376l4.425781-2.214844c1.109375-.554688 2.332031-.839844 3.574219-.839844h16v-32h-14.113281zm0 0"/><path d="m224 32h16v24h-16zm0 0"/><path d="m256 32h16v24h-16zm0 0"/><path d="m288 32h16v24h-16zm0 0"/><path d="m320 32h16v24h-16zm0 0"/><path d="m352 32h16v24h-16zm0 0"/><path d="m248 72h96v16h-96zm0 0"/></g><path d="m104 344h16v40h-16zm0 0" fill="#d1d4d6"/><path d="m80 112h320v16h-320zm0 0" fill="#cf4c45"/><path d="m56 272h88v16h-88zm0 0" fill="#3181bd"/><path d="m176 272h248v16h-248zm0 0" fill="#3181bd"/><path d="m24 240h432v16h-432zm0 0" fill="#cf4c45"/></svg>